<mxfile host="app.diagrams.net" modified="2023-05-24T20:42:08.127Z" agent="Mozilla/5.0 (X11; Linux x86_64) AppleWebKit/537.36 (KHTML, like Gecko) Chrome/113.0.0.0 Safari/537.36" etag="yqE1bO5_sXdTkb_iPmCN" version="21.3.2" type="github">
  <diagram name="Página-1" id="zZdcpeNf8V_d-15-9GkD">
    <mxGraphModel dx="1120" dy="1628" grid="1" gridSize="10" guides="1" tooltips="1" connect="1" arrows="1" fold="1" page="1" pageScale="1" pageWidth="827" pageHeight="1169" math="0" shadow="0">
      <root>
        <mxCell id="0" />
        <mxCell id="1" parent="0" />
        <mxCell id="w5ixAtrGYWYDF9H7z7PE-1" value="Usuário&lt;br&gt;" style="shape=umlActor;verticalLabelPosition=bottom;verticalAlign=top;html=1;outlineConnect=0;" parent="1" vertex="1">
          <mxGeometry x="140" y="-440" width="30" height="60" as="geometry" />
        </mxCell>
        <mxCell id="w5ixAtrGYWYDF9H7z7PE-2" value="Empresa" style="shape=umlActor;verticalLabelPosition=bottom;verticalAlign=top;html=1;outlineConnect=0;" parent="1" vertex="1">
          <mxGeometry x="190" y="-40" width="30" height="60" as="geometry" />
        </mxCell>
        <mxCell id="w5ixAtrGYWYDF9H7z7PE-4" value="Aluno" style="shape=umlActor;verticalLabelPosition=bottom;verticalAlign=top;html=1;outlineConnect=0;" parent="1" vertex="1">
          <mxGeometry x="110" y="-130" width="30" height="60" as="geometry" />
        </mxCell>
        <mxCell id="w5ixAtrGYWYDF9H7z7PE-5" value="Professor" style="shape=umlActor;verticalLabelPosition=bottom;verticalAlign=top;html=1;outlineConnect=0;" parent="1" vertex="1">
          <mxGeometry x="30" y="-170" width="30" height="60" as="geometry" />
        </mxCell>
        <mxCell id="w5ixAtrGYWYDF9H7z7PE-6" value="Pessoa" style="shape=umlActor;verticalLabelPosition=bottom;verticalAlign=top;html=1;outlineConnect=0;" parent="1" vertex="1">
          <mxGeometry x="80" y="-310" width="30" height="60" as="geometry" />
        </mxCell>
        <mxCell id="w5ixAtrGYWYDF9H7z7PE-9" value="" style="endArrow=block;endSize=16;endFill=0;html=1;rounded=0;" parent="1" edge="1">
          <mxGeometry x="0.0022" width="160" relative="1" as="geometry">
            <mxPoint x="55" y="-180" as="sourcePoint" />
            <mxPoint x="70" y="-230" as="targetPoint" />
            <mxPoint as="offset" />
          </mxGeometry>
        </mxCell>
        <mxCell id="w5ixAtrGYWYDF9H7z7PE-10" value="" style="endArrow=block;endSize=16;endFill=0;html=1;rounded=0;" parent="1" edge="1">
          <mxGeometry width="160" relative="1" as="geometry">
            <mxPoint x="110" y="-310" as="sourcePoint" />
            <mxPoint x="150" y="-360" as="targetPoint" />
          </mxGeometry>
        </mxCell>
        <mxCell id="w5ixAtrGYWYDF9H7z7PE-11" value="" style="endArrow=block;endSize=16;endFill=0;html=1;rounded=0;exitX=0.5;exitY=0;exitDx=0;exitDy=0;exitPerimeter=0;" parent="1" edge="1" source="w5ixAtrGYWYDF9H7z7PE-2">
          <mxGeometry width="160" relative="1" as="geometry">
            <mxPoint x="215" y="-80" as="sourcePoint" />
            <mxPoint x="160" y="-360" as="targetPoint" />
          </mxGeometry>
        </mxCell>
        <mxCell id="w5ixAtrGYWYDF9H7z7PE-12" value="" style="endArrow=block;endSize=16;endFill=0;html=1;rounded=0;" parent="1" edge="1">
          <mxGeometry width="160" relative="1" as="geometry">
            <mxPoint x="120" y="-140" as="sourcePoint" />
            <mxPoint x="110" y="-230" as="targetPoint" />
          </mxGeometry>
        </mxCell>
        <mxCell id="w5ixAtrGYWYDF9H7z7PE-16" value="UC4" style="shape=umlFrame;whiteSpace=wrap;html=1;pointerEvents=0;" parent="1" vertex="1">
          <mxGeometry y="-490" width="710" height="620" as="geometry" />
        </mxCell>
        <mxCell id="w5ixAtrGYWYDF9H7z7PE-18" value="" style="rounded=0;whiteSpace=wrap;html=1;" parent="1" vertex="1">
          <mxGeometry x="320" y="-470" width="360" height="580" as="geometry" />
        </mxCell>
        <mxCell id="w5ixAtrGYWYDF9H7z7PE-25" value="Realizar Cadastro" style="ellipse;whiteSpace=wrap;html=1;" parent="1" vertex="1">
          <mxGeometry x="420" y="-460" width="160" height="50" as="geometry" />
        </mxCell>
        <mxCell id="w5ixAtrGYWYDF9H7z7PE-26" value="Realizar Login" style="ellipse;whiteSpace=wrap;html=1;" parent="1" vertex="1">
          <mxGeometry x="425" y="-390" width="150" height="50" as="geometry" />
        </mxCell>
        <mxCell id="w5ixAtrGYWYDF9H7z7PE-27" value="Consultar extrato da conta" style="ellipse;whiteSpace=wrap;html=1;" parent="1" vertex="1">
          <mxGeometry x="400" y="-302.5" width="200" height="45" as="geometry" />
        </mxCell>
        <mxCell id="w5ixAtrGYWYDF9H7z7PE-32" value="Distribuir moedas" style="ellipse;whiteSpace=wrap;html=1;" parent="1" vertex="1">
          <mxGeometry x="414" y="-240" width="200" height="45" as="geometry" />
        </mxCell>
        <mxCell id="w5ixAtrGYWYDF9H7z7PE-33" value="Trocar moedas por vantagens cadastradas" style="ellipse;whiteSpace=wrap;html=1;" parent="1" vertex="1">
          <mxGeometry x="414" y="-175" width="200" height="45" as="geometry" />
        </mxCell>
        <mxCell id="w5ixAtrGYWYDF9H7z7PE-35" value="" style="endArrow=none;html=1;rounded=0;entryX=0;entryY=0.5;entryDx=0;entryDy=0;" parent="1" target="w5ixAtrGYWYDF9H7z7PE-25" edge="1">
          <mxGeometry width="50" height="50" relative="1" as="geometry">
            <mxPoint x="180" y="-420" as="sourcePoint" />
            <mxPoint x="440" y="-170" as="targetPoint" />
          </mxGeometry>
        </mxCell>
        <mxCell id="w5ixAtrGYWYDF9H7z7PE-36" value="" style="endArrow=none;html=1;rounded=0;entryX=0;entryY=0.5;entryDx=0;entryDy=0;" parent="1" target="w5ixAtrGYWYDF9H7z7PE-26" edge="1">
          <mxGeometry width="50" height="50" relative="1" as="geometry">
            <mxPoint x="180" y="-410" as="sourcePoint" />
            <mxPoint x="430" y="-425" as="targetPoint" />
          </mxGeometry>
        </mxCell>
        <mxCell id="w5ixAtrGYWYDF9H7z7PE-37" value="" style="endArrow=none;html=1;rounded=0;entryX=0;entryY=0.5;entryDx=0;entryDy=0;" parent="1" target="w5ixAtrGYWYDF9H7z7PE-27" edge="1">
          <mxGeometry width="50" height="50" relative="1" as="geometry">
            <mxPoint x="120" y="-290" as="sourcePoint" />
            <mxPoint x="435" y="-355" as="targetPoint" />
          </mxGeometry>
        </mxCell>
        <mxCell id="w5ixAtrGYWYDF9H7z7PE-39" value="" style="endArrow=none;html=1;rounded=0;entryX=0;entryY=0.5;entryDx=0;entryDy=0;" parent="1" target="w5ixAtrGYWYDF9H7z7PE-32" edge="1">
          <mxGeometry width="50" height="50" relative="1" as="geometry">
            <mxPoint x="70" y="-150" as="sourcePoint" />
            <mxPoint x="455" y="-335" as="targetPoint" />
          </mxGeometry>
        </mxCell>
        <mxCell id="w5ixAtrGYWYDF9H7z7PE-40" value="" style="endArrow=none;html=1;rounded=0;entryX=0;entryY=0.5;entryDx=0;entryDy=0;" parent="1" target="w5ixAtrGYWYDF9H7z7PE-33" edge="1">
          <mxGeometry width="50" height="50" relative="1" as="geometry">
            <mxPoint x="150" y="-110" as="sourcePoint" />
            <mxPoint x="465" y="-325" as="targetPoint" />
          </mxGeometry>
        </mxCell>
        <mxCell id="w5ixAtrGYWYDF9H7z7PE-42" value="Cadastrar vantagens" style="ellipse;whiteSpace=wrap;html=1;" parent="1" vertex="1">
          <mxGeometry x="410" y="10" width="200" height="45" as="geometry" />
        </mxCell>
        <mxCell id="w5ixAtrGYWYDF9H7z7PE-43" value="" style="endArrow=none;html=1;rounded=0;entryX=0;entryY=0.5;entryDx=0;entryDy=0;exitX=1;exitY=0.3333333333333333;exitDx=0;exitDy=0;exitPerimeter=0;" parent="1" target="w5ixAtrGYWYDF9H7z7PE-42" edge="1" source="w5ixAtrGYWYDF9H7z7PE-2">
          <mxGeometry width="50" height="50" relative="1" as="geometry">
            <mxPoint x="240" y="-50" as="sourcePoint" />
            <mxPoint x="440" y="-160" as="targetPoint" />
          </mxGeometry>
        </mxCell>
        <mxCell id="2Ves_JCTpTX_pLC776pR-1" value="Listar vantagens" style="ellipse;whiteSpace=wrap;html=1;" parent="1" vertex="1">
          <mxGeometry x="414" y="-122.5" width="200" height="45" as="geometry" />
        </mxCell>
        <mxCell id="2Ves_JCTpTX_pLC776pR-2" value="" style="endArrow=none;html=1;rounded=0;entryX=0;entryY=0.5;entryDx=0;entryDy=0;" parent="1" target="2Ves_JCTpTX_pLC776pR-1" edge="1">
          <mxGeometry width="50" height="50" relative="1" as="geometry">
            <mxPoint x="150" y="-110" as="sourcePoint" />
            <mxPoint x="424" y="-142" as="targetPoint" />
          </mxGeometry>
        </mxCell>
        <mxCell id="yw-PXtuFb0D_p6HWVtiq-1" style="edgeStyle=orthogonalEdgeStyle;rounded=0;orthogonalLoop=1;jettySize=auto;html=1;exitX=0.5;exitY=1;exitDx=0;exitDy=0;" edge="1" parent="1" source="w5ixAtrGYWYDF9H7z7PE-18" target="w5ixAtrGYWYDF9H7z7PE-18">
          <mxGeometry relative="1" as="geometry" />
        </mxCell>
        <mxCell id="yw-PXtuFb0D_p6HWVtiq-2" value="Resgatar vantagens" style="ellipse;whiteSpace=wrap;html=1;" vertex="1" parent="1">
          <mxGeometry x="414" y="-62.5" width="200" height="45" as="geometry" />
        </mxCell>
        <mxCell id="yw-PXtuFb0D_p6HWVtiq-3" value="" style="endArrow=none;html=1;rounded=0;entryX=0;entryY=0.5;entryDx=0;entryDy=0;" edge="1" parent="1" target="yw-PXtuFb0D_p6HWVtiq-2">
          <mxGeometry width="50" height="50" relative="1" as="geometry">
            <mxPoint x="150" y="-110" as="sourcePoint" />
            <mxPoint x="424" y="-90" as="targetPoint" />
          </mxGeometry>
        </mxCell>
      </root>
    </mxGraphModel>
  </diagram>
</mxfile>
